<?xml version="1.0" encoding="UTF-8"?>
<svg width="14px" height="14px" viewBox="0 0 14 14" version="1.1" xmlns="http://www.w3.org/2000/svg" xmlns:xlink="http://www.w3.org/1999/xlink">
    <!-- Generator: Sketch 63.1 (92452) - https://sketch.com -->
    <title>编组 18</title>
    <desc>Created with Sketch.</desc>
    <g id="页面-1" stroke="none" stroke-width="1" fill="none" fill-rule="evenodd">
        <g id="主数据系统页面样式规范" transform="translate(-29.000000, -457.000000)" fill="#FFFFFF" fill-rule="nonzero">
            <g id="编组-18" transform="translate(29.000000, 457.000000)">
                <g id="编组">
                    <path d="M7.30470568,6.67334201 C7.35817844,6.97329737 7.52308583,7.24010091 7.76364862,7.42189867 L7.8712746,7.49445639 L8.83197842,8.07334201 L10.2689286,8.91908981 C10.5176511,9.06518661 10.8016107,9.1404359 11.0900429,9.13668512 C11.3203611,9.13969464 11.5479354,9.09310375 11.7575508,9.00086841 L11.9111573,8.92319537 L12.7322717,8.43463233 C12.8338931,8.37596115 12.9543797,8.36422691 13.0635472,8.39942962 L13.1428289,8.43463233 L13.5000136,8.64812206 C13.7873992,8.81654412 13.9636322,9.12499929 13.9627928,9.45809948 C13.9620474,9.74956216 13.8258292,10.021468 13.5986901,10.1967413 L13.495908,10.2657174 L7.93285818,13.5501749 C7.39363151,13.8660441 6.73656133,13.8923666 6.17769407,13.6291422 L6.02787283,13.5501749 L0.464822991,10.2657174 C0.1770134,10.0980246 2.54907206e-13,9.79001915 2.54907206e-13,9.45691972 C2.54907206e-13,9.16545773 0.135525885,8.89320829 0.362217296,8.71735897 L0.464822991,8.64812206 L0.826113314,8.43463233 C0.92773478,8.37596115 1.04822132,8.36422691 1.15738882,8.39942962 L1.23667049,8.43463233 L2.05778487,8.91908981 C2.30698541,9.06403695 2.59062114,9.13920042 2.87889923,9.13668512 C3.10933589,9.14068098 3.33714064,9.09423362 3.54660224,9.00142797 L3.70001361,8.92319537 L5.12875261,8.06513086 L6.09766756,7.49445639 C6.39646576,7.31565393 6.60312476,7.01614814 6.66423648,6.67334201 C6.8748924,6.72253512 7.09404977,6.72253512 7.30470568,6.67334201 Z M10.5850576,4.78067338 C10.7932113,4.66132817 11.0422333,4.64427886 11.2620636,4.72952544 L11.3692218,4.78067338 L13.7750869,6.19709567 C13.8803329,6.27626432 13.9412108,6.40111676 13.9387724,6.53279225 C13.9368217,6.63813265 13.8945379,6.73760897 13.8223526,6.81169734 L13.7627702,6.86219832 L11.46365,8.21293145 C11.2564976,8.33597913 11.0059021,8.35355737 10.7863374,8.26566617 L10.6794857,8.21293145 L8.28593735,6.80061473 C8.17761886,6.72360082 8.11328203,6.59891674 8.11328203,6.46601063 C8.11328203,6.35968573 8.1544576,6.25862294 8.2263869,6.1830197 L8.28593735,6.13140653 L10.5850576,4.78067338 Z M2.59972035,4.78067338 C2.80787409,4.66132817 3.05689602,4.64427886 3.27672638,4.72952544 L3.38388458,4.78067338 L5.68300482,6.13140653 C5.7913233,6.20842043 5.85566014,6.33310451 5.85566014,6.46601063 C5.85566014,6.57233552 5.81448456,6.67339831 5.74255527,6.74900155 L5.68300482,6.80061473 L3.27713971,8.21293145 C3.06998739,8.33597912 2.81939181,8.35355736 2.59982713,8.26566616 L2.49297549,8.21293145 L0.193855249,6.86219832 C0.0872075809,6.78498675 0.0240610501,6.66131078 0.0240610501,6.529647 C0.0240610501,6.42431597 0.0644748298,6.32409714 0.135243948,6.24869053 L0.193855249,6.19709567 L2.59972035,4.78067338 Z M6.60675847,2.43228629 C6.81600102,2.31231248 7.06632829,2.29517337 7.28730933,2.38086894 L7.39502826,2.43228629 L9.65719836,3.78301943 C9.76551685,3.86003333 9.82985369,3.98471741 9.82985369,4.11762353 C9.82985369,4.22394842 9.78867811,4.32501121 9.71674882,4.40061445 L9.65719836,4.45222763 L7.36218369,5.80296077 C7.15373436,5.92587661 6.90216061,5.94343601 6.68139001,5.85563899 L6.5739139,5.80296077 L4.29532152,4.45222763 C4.19353841,4.37456399 4.13381219,4.25386374 4.13381219,4.12583467 C4.13381219,4.02341142 4.17203697,3.92567861 4.23943983,3.85091863 L4.29532152,3.79944171 L6.60675847,2.43228629 Z M10.5850576,0.10442706 C10.7932113,-0.0149181514 11.0422333,-0.0319674672 11.2620636,0.053279112 L11.3692218,0.10442706 L13.7627702,1.53727163 C13.8694179,1.6144832 13.9325644,1.73815917 13.9325644,1.86982295 C13.9325644,1.97515397 13.8921506,2.0753728 13.8213815,2.15077941 L13.7627702,2.20237427 L11.46365,3.55310741 C11.2564976,3.67615509 11.0059021,3.69373333 10.7863374,3.60584213 L10.6794857,3.55310741 L8.28593735,2.15721298 C8.1632385,2.08278601 8.08830661,1.94969401 8.08830661,1.80618658 C8.08830661,1.69138064 8.13626302,1.58324057 8.21826739,1.50647017 L8.28593735,1.45516018 L10.5850576,0.10442706 Z M2.59972035,0.10442706 C2.80787409,-0.0149181514 3.05689602,-0.0319674672 3.27672638,0.053279112 L3.38388458,0.10442706 L5.68300482,1.48800477 C5.7913233,1.56501868 5.85566014,1.68970276 5.85566014,1.82260888 C5.85566014,1.92893377 5.81448456,2.02999656 5.74255527,2.1055998 L5.68300482,2.15721298 L3.27713971,3.55310741 C3.06998739,3.67615508 2.81939181,3.69373332 2.59982713,3.60584213 L2.49297549,3.55310741 L0.193855249,2.20237427 C0.087207588,2.1251627 0.0240610623,2.00148673 0.0240610623,1.86982295 C0.0240610623,1.76449193 0.0644748387,1.6642731 0.135243952,1.58886649 L0.193855249,1.53727163 L2.59972035,0.10442706 Z" id="形状"></path>
                </g>
            </g>
        </g>
    </g>
</svg>