<?xml version="1.0" encoding="UTF-8"?>
<svg width="13px" height="16px" viewBox="0 0 13 16" version="1.1" xmlns="http://www.w3.org/2000/svg" xmlns:xlink="http://www.w3.org/1999/xlink">
    <!-- Generator: Sketch 63.1 (92452) - https://sketch.com -->
    <title>编组 17</title>
    <desc>Created with Sketch.</desc>
    <g id="页面-1" stroke="none" stroke-width="1" fill="none" fill-rule="evenodd">
        <g id="主数据系统页面样式规范" transform="translate(-30.000000, -116.000000)" fill="#FFFFFF" fill-rule="nonzero">
            <g id="编组-17" transform="translate(30.000000, 116.000000)">
                <g id="编组-16">
                    <g id="编组">
                        <path d="M7.39693963,6.1284311e-14 C7.59295707,6.1284311e-14 7.75649984,0.139040593 7.79432276,0.323876597 L7.8025636,0.405623977 L7.8025636,2.60471437 L7.86249325,2.70712894 C8.16489645,3.1970075 9.51617741,5.06830845 12.5913603,5.21470184 C12.7804189,5.22388198 12.9341188,5.36146569 12.9695898,5.54063674 L12.9773115,5.61971739 L12.9773115,15.1632383 C12.9773115,15.3592557 12.8382709,15.5227985 12.6534349,15.5606214 L12.5716875,15.5688623 L0.412500366,15.5688623 C0.216482922,15.5688623 0.0529401478,15.4298217 0.0151172269,15.2449857 L0.00687638941,15.1632383 L0.00687638941,0.405623977 C0.00687638941,0.209606532 0.145916983,0.0460637584 0.330752987,0.00824083754 L0.412500366,6.1284311e-14 L7.39693963,6.1284311e-14 Z M7.80621421,5.18793067 L7.80621421,14.272488 L8.69858696,14.272488 C8.8946044,14.272488 9.05814718,14.1334474 9.0959701,13.9486114 L9.10421094,13.8668641 L9.10441379,6.10159867 C9.10444883,5.97479914 9.04534432,5.85687066 8.94729704,5.78088617 L8.88395712,5.74059333 L7.80621421,5.18793067 Z M10.4074808,6.48998363 L10.4074808,11.6797396 L11.2998535,11.6797396 C11.495871,11.6797396 11.6594137,11.540699 11.6972367,11.355863 L11.7054775,11.2741156 L11.7058831,7.27344633 C11.70587,7.1341935 11.6346933,7.00682272 11.5208798,6.93308226 L11.4477035,6.8956076 L10.4074808,6.48998363 Z M5.25950409,7.78899441 L1.30467031,7.78899441 L1.30467031,9.10727233 L5.25950409,9.10727233 L5.25950409,7.78899441 Z M6.48489411,5.19462345 L1.30467031,5.19462345 L1.30467031,6.51290137 L6.48489411,6.51290137 L6.48489411,5.19462345 Z M6.48611098,2.63452772 L1.30467031,2.63452772 L1.30467031,3.91670512 L6.48611098,3.91670512 L6.48611098,2.63452772 Z" id="形状"></path>
                    </g>
                </g>
            </g>
        </g>
    </g>
</svg>