<?xml version="1.0" encoding="UTF-8"?>
<svg width="13px" height="13px" viewBox="0 0 13 13" version="1.1" xmlns="http://www.w3.org/2000/svg" xmlns:xlink="http://www.w3.org/1999/xlink">
    <!-- Generator: Sketch 63.1 (92452) - https://sketch.com -->
    <title>合并形状 3</title>
    <desc>Created with Sketch.</desc>
    <g id="页面-1" stroke="none" stroke-width="1" fill="none" fill-rule="evenodd">
        <g id="主数据系统页面样式规范" transform="translate(-30.000000, -578.000000)" fill="#FFFFFF">
            <g id="合并形状-3" transform="translate(30.000000, 578.000000)">
                <g id="合并形状-2">
                    <path d="M6,7 L6,10 C6,11.6568542 4.65685425,13 3,13 C1.34314575,13 -2.02906125e-16,11.6568542 0,10 C2.02906125e-16,8.34314575 1.34314575,7 3,7 L3,7 L6,7 Z M10,7 C11.6568542,7 13,8.34314575 13,10 C13,11.6568542 11.6568542,13 10,13 C8.34314575,13 7,11.6568542 7,10 L7,7 L10,7 Z M3,0 C4.65685425,-3.04359188e-16 6,1.34314575 6,3 L6,6 L3,6 C1.34314575,6 2.02906125e-16,4.65685425 0,3 C-2.02906125e-16,1.34314575 1.34314575,3.04359188e-16 3,0 Z M10,0 C11.6568542,3.04359188e-16 13,1.34314575 13,3 C13,4.65685425 11.6568542,6 10,6 L10,6 L7,6 L7,3 C7,1.34314575 8.34314575,-3.04359188e-16 10,0 Z" id="合并形状"></path>
                </g>
            </g>
        </g>
    </g>
</svg>